<?xml version="1.0" encoding="utf-8"?>
<!-- Generator: Adobe Illustrator 21.0.0, SVG Export Plug-In . SVG Version: 6.00 Build 0)  -->
<svg version="1.1" id="Layer_4" xmlns="http://www.w3.org/2000/svg" xmlns:xlink="http://www.w3.org/1999/xlink" x="0px" y="0px"
	 viewBox="0 0 96 96" style="enable-background:new 0 0 96 96;" xml:space="preserve">
<style type="text/css">
	.st0{fill:#B2C3F7;}
	.st1{fill:#8181D3;}
</style>
<path class="st0" d="M93.8,53.1c-0.1-0.6-0.6-1.1-1.2-1.2l-7.3-1.1c-0.6-0.1-1.3-0.6-1.5-1.1L80,43.2c-0.3-0.5-0.3-1.3-0.1-1.9
	l2.8-6.8c0.2-0.5,0-1.3-0.4-1.6L75,26.7c-0.4-0.4-1.2-0.4-1.7-0.1L67,30.4c-0.5,0.3-1.3,0.4-1.9,0.2L58.1,28
	c-0.5-0.2-1.1-0.8-1.3-1.4l-2.2-7.1c-0.2-0.5-0.8-1-1.4-1l-9.5-0.1c-0.6,0-1.2,0.4-1.4,1l-2.3,7c-0.2,0.5-0.8,1.1-1.3,1.3l-7.1,2.5
	c-0.5,0.2-1.4,0.1-1.9-0.2l-6.3-4c-0.5-0.3-1.2-0.3-1.7,0.1l-7.3,6.1C14,32.7,13.8,33.4,14,34l2.7,6.9c0.2,0.5,0.1,1.4-0.1,1.9
	l-3.8,6.5c-0.3,0.5-1,1-1.6,1l-7.4,1c-0.6,0.1-1.1,0.6-1.2,1.2L1,61.8c-0.1,0.6,0.2,1.2,0.7,1.5l6.5,3.5c0.5,0.3,1,1,1.1,1.5
	l0.7,4.2l76.2,0l0.7-3.6c0.1-0.6,0.6-1.2,1.1-1.5l6.6-3.4c0.5-0.3,0.8-0.9,0.8-1.5L93.8,53.1z M40,38c-8.4,2.2-14.2,6.4-16.9,11.3
	C17.2,59.9,19,70.1,19,70.1s-3.4-12.7,2.4-22.5c3.2-5.4,8.6-10.3,17.8-12.7c0.8-0.2,1.7,0.3,1.9,1.1C41.4,36.9,40.9,37.8,40,38z
	 M50,37.3c0,0.9-0.6,1.6-1.5,1.6c-0.9,0-1.5-0.7-1.5-1.6V34c0-0.9,0.6-1.6,1.5-1.6c0.9,0,1.5,0.7,1.5,1.6V37.3z M63.1,37.6l-1.6,3
	c-0.4,0.8-1.4,1.1-2.1,0.6c-0.8-0.4-1.1-1.4-0.6-2.1l1.6-3c0.4-0.8,1.4-1.1,2.1-0.6C63.2,35.9,63.5,36.9,63.1,37.6z M68.4,48
	c-0.6-0.6-0.6-1.6,0-2.2l2.3-2.4c0.6-0.6,1.6-0.6,2.2,0s0.6,1.6,0,2.2L70.6,48C70,48.6,69,48.6,68.4,48z M73.4,55.3l3.2-1.1
	c0.8-0.3,1.7,0.2,2,1c0.3,0.8-0.2,1.7-1,2l-3.2,1.1c-0.8,0.3-1.7-0.2-2-1C72.2,56.5,72.6,55.6,73.4,55.3z M77.5,69h-3.4
	c-0.9,0-1.6-0.6-1.6-1.5s0.7-1.5,1.6-1.5h3.4c0.9,0,1.6,0.6,1.6,1.5S78.4,69,77.5,69z"/>
<path class="st1" d="M67.8,39.6c-0.7-0.6-1.7-0.4-2.3,0.3L53.1,55.4c-1-0.4-2.1-0.6-3.2-0.6c-3.7,0.3-6.5,3.5-6.3,7.2
	c0.1,1.3,0.6,2.6,1.3,3.6c0,0,0.9,1.4,2.5,2.1c1.3,0.5,2.2,0.7,3.4,0.6c3.7-0.3,6.5-3.5,6.3-7.2c-0.1-1.4-0.6-2.7-1.4-3.7l12.4-15.5
	C68.7,41.2,68.5,40.2,67.8,39.6z"/>
</svg>
