<?xml version="1.0" encoding="utf-8"?>
<!-- Generator: Adobe Illustrator 21.0.0, SVG Export Plug-In . SVG Version: 6.00 Build 0)  -->
<svg version="1.1" id="Your_Icons" xmlns="http://www.w3.org/2000/svg" xmlns:xlink="http://www.w3.org/1999/xlink" x="0px" y="0px"
	 viewBox="0 0 96 96" style="enable-background:new 0 0 96 96;" xml:space="preserve">
<style type="text/css">
	.st0{fill:#B2C3F7;}
	.st1{fill:#8181D3;}
</style>
<path class="st0" d="M48.5,71.8c-1,1-2.6,1-3.6,0l-0.5-0.5L25.7,55.6c-1-0.8-1.1-2.3-0.3-3.2l7.1-8.5c0.8-1,2.3-1.1,3.2-0.3L46,52.2
	l27.5-27.5c-6.8-8.2-17-13.4-28.5-13.4c-20.4,0-37,16.5-37,37c0,20.4,16.5,37,37,37c20.4,0,37-16.5,37-37c0-2.7-0.3-5.3-0.8-7.8
	c-0.1-0.3-0.7-0.5-1.1-0.1C79.4,40.9,48.5,71.8,48.5,71.8z"/>
<path class="st1" d="M89,21l-7.5-7.5c-1-1-2.6-1-3.6,0l-32,32l-10.3-8.6c-1-0.8-2.4-0.7-3.2,0.3l-7.1,8.5c-0.8,1-0.7,2.4,0.3,3.2
	l18.8,15.7l0.5,0.5c1,1,2.6,1,3.6,0L89,24.6C90,23.6,90,22,89,21z"/>
</svg>
