<?xml version="1.0" encoding="utf-8"?>
<!-- Generator: Adobe Illustrator 21.0.0, SVG Export Plug-In . SVG Version: 6.00 Build 0)  -->
<svg version="1.1" id="Your_Icons" xmlns="http://www.w3.org/2000/svg" xmlns:xlink="http://www.w3.org/1999/xlink" x="0px" y="0px"
	 viewBox="0 0 96 96" style="enable-background:new 0 0 96 96;" xml:space="preserve">
<style type="text/css">
	.st0{fill:#B2C3F7;}
	.st1{fill:#8181D3;}
</style>
<path class="st0" d="M81.6,28.8c0-0.5-0.3-1-0.7-1.3l-33-18.6c-0.4-0.2-1.1-0.2-1.5,0L13.7,28.2C13.3,28.5,13,29,13,29.5l0.4,37.9
	c0,0.5,0.3,1,0.7,1.3l33,18.6c0.4,0.2,1.1,0.2,1.5,0L81.3,68c0.4-0.2,0.7-0.8,0.7-1.3L81.6,28.8z M48.5,70.8c-0.4,0.2-1.1,0.2-1.5,0
	L28.1,60.2c-0.4-0.2-0.5-0.5-0.5-0.5l19-11.1c0.4-0.2,0.8-0.4,0.8-0.4l20.3,11.2c0,0-0.2,0.3-0.6,0.5L48.5,70.8z"/>
<path class="st1" d="M13,29.5c0-0.5,0.2-0.7,0.2-0.7L26.4,36c0.4,0.2,0.7,0.8,0.7,1.3l0.2,21.7c0,0.5,0.3,1,0.7,1.3L47,70.8
	c0.3,0.2,0.7,0.2,0.7,0.2l0.1,16.5c0,0-0.4,0-0.7-0.2l-33-18.6c-0.4-0.2-0.7-0.8-0.7-1.3L13,29.5z"/>
<path class="st1" d="M48,25c-0.4-0.2-0.7,0-0.7,0.4l0.1,21.8c0,0.5,0,0.9,0,0.9l20.3,11.2c0,0,0.2-0.3,0.1-0.8l-0.2-21.7
	c0-0.5-0.3-1-0.7-1.3L48,25z"/>
</svg>
