<?xml version="1.0" encoding="utf-8"?>
<!-- Generator: Adobe Illustrator 21.0.0, SVG Export Plug-In . SVG Version: 6.00 Build 0)  -->
<svg version="1.1" id="Your_Icons" xmlns="http://www.w3.org/2000/svg" xmlns:xlink="http://www.w3.org/1999/xlink" x="0px" y="0px"
	 viewBox="0 0 96 96" style="enable-background:new 0 0 96 96;" xml:space="preserve">
<style type="text/css">
	.st0{fill:#8181D3;}
	.st1{fill:#B2C3F7;}
</style>
<path class="st0" d="M21.1,25.6c0-0.1-4.4-9.1,5.5-14.5c9.9-5.4,15.1,3.3,15.1,3.3l-2.1,1.2c-0.2-0.3-4-6.7-11.9-2.4
	c-7.9,4.3-4.6,11-4.5,11.3L21.1,25.6z"/>
<path class="st0" d="M63.8,87.1c-4-0.9-6.3-4-6.3-4.1l2-1.4l-1,0.7l1-0.7c0.2,0.3,4.7,6.3,12.2,1.3c7.5-5,3.6-11.4,3.4-11.7l2.1-1.3
	c0.1,0.1,5.3,8.7-4.1,15C69.4,87.4,66.3,87.7,63.8,87.1z"/>
<path class="st0" d="M18.9,78c-2.3-0.5-4.8-2-7.1-5.2c-6.5-9.3,1.5-15.5,1.6-15.6l1.5,2l-0.7-1l0.7,1c-0.3,0.2-6.2,4.8-1.1,12.2
	c5.1,7.4,11.5,3.4,11.8,3.2l1.3,2C26.9,76.7,23.3,79,18.9,78z"/>
<path class="st0" d="M83.1,41.2l-1.3-2.1c0.3-0.2,6.6-4.2,2.2-12c-4.4-7.8-11.2-4.4-11.4-4.3l-1.1-2.2c0.1,0,9.1-4.6,14.7,5.2
	C91.8,35.8,83.2,41.2,83.1,41.2z"/>
<path class="st1" d="M57,12.9c-19.5-4.4-39,7.8-43.4,27.4c-4.4,19.5,7.8,39,27.4,43.4c19.5,4.4,39-7.8,43.4-27.4
	C88.8,36.8,76.6,17.4,57,12.9z M44.3,66.8c-10.3-2.3-16.7-12.6-14.4-22.9c2.3-10.3,12.6-16.7,22.9-14.4s16.7,12.6,14.4,22.9
	C64.9,62.7,54.6,69.1,44.3,66.8z"/>
<g>
	<path class="st0" d="M58.2,31.7c0.1-0.1,9.6-14.4,9.6-14.4c-3.1-2.1-7.1-3.5-10.6-4.3c-3.5-0.9-8-1.2-11.4-0.8
		c0,0.1,2.4,16.9,2.4,16.9c1.5,0,3.1,0.1,4.7,0.5C54.8,30,56.6,30.7,58.2,31.7z"/>
	<path class="st0" d="M39.8,65.2C39.8,65.2,39.8,65.2,39.8,65.2c-2.4,3.5-9.5,14.2-9.5,14.3c2.9,1.8,7.1,3.5,10.7,4.3
		c3.6,0.7,7.4,1.1,11.4,0.7c0,0-1.9-13.2-2.4-17.1c0-0.1,0-0.1,0-0.2c-1.8,0.1-3.7,0-5.5-0.4C42.8,66.4,41.2,65.9,39.8,65.2z"/>
	<path class="st0" d="M85.2,45c-0.1,0-17.5,2.4-17.5,2.4s0,0.3,0,0.7c0,1.4-0.1,2.8-0.5,4.3c-0.4,1.6-0.9,3.1-1.6,4.5
		c-0.2,0.3-0.1,0.3-0.2,0.4c3.2,2.2,14.7,9.8,14.7,9.8c2.1-3.1,3.5-7.1,4.3-10.6C85.2,52.9,85.5,48.4,85.2,45z"/>
	<path class="st0" d="M31.9,38.8c-3.6-2.4-13.9-9.2-14-9.3c-1.8,2.9-3.5,7-4.3,10.5c-0.7,3.6-1.2,6.5-0.8,11.5
		c0,0,12.4-1.7,16.6-2.4c-0.1-1.7,0-3.5,0.4-5.3C30.3,42.1,31,40.4,31.9,38.8z"/>
</g>
</svg>
