<?xml version="1.0" encoding="utf-8"?>
<!-- Generator: Adobe Illustrator 21.0.0, SVG Export Plug-In . SVG Version: 6.00 Build 0)  -->
<svg version="1.1" id="Your_Icons" xmlns="http://www.w3.org/2000/svg" xmlns:xlink="http://www.w3.org/1999/xlink" x="0px" y="0px"
	 viewBox="0 0 96 96" style="enable-background:new 0 0 96 96;" xml:space="preserve">
<style type="text/css">
	.st0{fill:#B2C3F7;}
	.st1{fill:#8181D3;}
</style>
<path class="st0" d="M65.6,39.1c0,0.5-0.3,1.1-0.8,1.4L48.7,50c-0.4,0.3-0.8,0.3-0.8,0.3L47.5,9.6c0,0,0.4,0,0.8,0.2L64.6,19
	c0.4,0.2,0.8,0.9,0.8,1.4L65.6,39.1z"/>
<path class="st1" d="M47.9,50.3c0,0-0.3,0-0.8-0.3l-16.3-9.2c-0.4-0.2-0.8-0.9-0.8-1.4l-0.2-18.7c0-0.5,0.3-1.1,0.8-1.4l16.1-9.5
	c0.4-0.3,0.8-0.2,0.8-0.2L47.9,50.3z"/>
<g>
	<path class="st1" d="M44.7,74.5c0,0.5-0.4,1.1-0.8,1.4l-16.2,9.4c-0.4,0.2-1.1,0.2-1.6,0L9.9,75.9c-0.4-0.2-0.8-0.9-0.8-1.4V55.8
		c0-0.5,0.4-1.1,0.8-1.4L26.2,45c0.4-0.2,1.1-0.2,1.6,0L44,54.4c0.4,0.2,0.8,0.9,0.8,1.4V74.5z"/>
</g>
<g>
	<path class="st0" d="M86,74.5c0,0.5-0.4,1.1-0.8,1.4L69,85.3c-0.4,0.2-1.1,0.2-1.6,0l-16.2-9.4c-0.4-0.2-0.8-0.9-0.8-1.4V55.8
		c0-0.5,0.4-1.1,0.8-1.4L67.4,45c0.4-0.2,1.1-0.2,1.6,0l16.2,9.4c0.4,0.2,0.8,0.9,0.8,1.4V74.5z"/>
</g>
</svg>
