<?xml version="1.0" encoding="utf-8"?>
<!-- Generator: Adobe Illustrator 21.0.0, SVG Export Plug-In . SVG Version: 6.00 Build 0)  -->
<svg version="1.1" xmlns="http://www.w3.org/2000/svg" xmlns:xlink="http://www.w3.org/1999/xlink" x="0px" y="0px"
	 viewBox="0 0 96 96" style="enable-background:new 0 0 96 96;" xml:space="preserve">
<style type="text/css">
	.st0{fill:#8181D3;}
	.st1{fill:#B2C3F7;}
	.st2{fill:#FFFFFF;}
</style>
<g id="Shield">
	<path class="st0" d="M29.7,10.3c0-0.5,0.4-0.9,0.9-0.9l36.5,0c0.5,0,0.9,0.4,1,0.9c0,0,0.9,5,3,7.2c2.3,2.4,8.3,4.1,8.3,4.1
		c0.5,0.1,0.9,0.5,0.9,1c0,0-0.1,13.9-0.1,29.1S49.7,86,49.7,86c-0.4,0.3-1.1,0.3-1.5,0c0,0-30.6-19.4-30.6-34.1s0-29.2,0-29.2
		c0-0.5,0.4-0.9,0.9-1c0,0,7.1-0.9,9.1-4.8C29.6,13,29.7,10.3,29.7,10.3z"/>
	<path class="st1" d="M49,9.4l18.1,0c0.5,0,0.9,0.4,1,0.9c0,0,0.9,5,3,7.2c2.3,2.4,8.3,4.1,8.3,4.1c0.5,0.1,0.9,0.5,0.9,1
		c0,0-0.1,13.9-0.1,29.1S49.7,86,49.7,86c-0.2,0.1-0.7,0.2-0.7,0.2V9.4z"/>
</g>
<g id="Layer_8">
	<path class="st2" d="M66.4,42.9L50.5,32.5c-0.8-0.5-1.4-0.2-1.4,0.8c0,0,0,2.1,0,2.5c0,0.4,0.1,0.5,0.3,0.6c0.1,0.1,10,6.6,10,6.6
		c0.8,0.5,0.8,1.3,0,1.9c0,0-9.4,6-9.7,6.2c-0.3,0.2-0.6,0.5-0.6,0.8c0,0.3,0,2.4,0,2.4c0,0.9,0.8,1.3,1.6,0.8l15.7-10.2
		C67.1,44.3,67.2,43.4,66.4,42.9z"/>
	<path class="st2" d="M54.7,44.8c0.8-0.5,0.8-1.3,0-1.9L38.6,32.5C37.8,32,37,32.3,37,33.2v21.2c0,0.9,0.9,1.3,1.6,0.8L54.7,44.8z"
		/>
</g>
</svg>
